<?xml version="1.0"?><svg width="377.91574" height="369.67596" xmlns="http://www.w3.org/2000/svg" xmlns:xlink="http://www.w3.org/1999/xlink">
 <title>eagle</title>
 <defs>
  <linearGradient id="linearGradient4098">
   <stop stop-color="#ffb142" offset="0" id="stop4100"/>
   <stop stop-color="#c87600" offset="1" id="stop4104"/>
  </linearGradient>
  <linearGradient xlink:href="#linearGradient4098" id="linearGradient3211" y2="0.634575" x2="0.666877" y1="0.634575" x1="0.440936"/>
  <linearGradient xlink:href="#linearGradient4098" id="linearGradient3327" y2="Infinity" x2="-0.736838" y1="Infinity" x1="-0.736836"/>
  <linearGradient xlink:href="#linearGradient4098" id="linearGradient3329" y2="Infinity" x2="-0.140348" y1="Infinity" x1="-0.140346"/>
  <linearGradient xlink:href="#linearGradient4098" id="linearGradient3331" y2="Infinity" x2="-1.350873" y1="Infinity" x1="-1.350871"/>
  <linearGradient xlink:href="#linearGradient4098" id="linearGradient3333" y2="Infinity" x2="1.964916" y1="Infinity" x1="1.964918"/>
  <linearGradient xlink:href="#linearGradient4098" id="linearGradient3335" y2="Infinity" x2="2.561407" y1="Infinity" x1="2.561409"/>
  <linearGradient xlink:href="#linearGradient4098" id="linearGradient3337" y2="Infinity" x2="1.350881" y1="Infinity" x1="1.350883"/>
 </defs>
 <g>
  <title>Layer 1</title>
  <g externalResourcesRequired="false" id="svg_63">
   <path id="svg_65" fill="url(#linearGradient3337)" fill-rule="nonzero" stroke="#000000" stroke-width="2.868705" stroke-linecap="round" stroke-linejoin="round" stroke-miterlimit="4" d="m184.432648,342.325256a13.884903,22.394392 0 1 1 -27.769806,0a13.884903,22.394392 0 1 1 27.769806,0z"/>
   <path id="svg_66" fill="url(#linearGradient3335)" fill-rule="nonzero" stroke="#000000" stroke-width="2.868705" stroke-linecap="round" stroke-linejoin="round" stroke-miterlimit="4" d="m150.816574,342.325256a13.884903,22.394392 0 1 1 -27.769821,0a13.884903,22.394392 0 1 1 27.769821,0z"/>
   <path id="svg_67" fill="url(#linearGradient3333)" fill-rule="nonzero" stroke="#000000" stroke-width="2.868705" stroke-linecap="round" stroke-linejoin="round" stroke-miterlimit="4" d="m167.381012,342.325256a13.884903,22.394392 0 1 1 -27.769806,0a13.884903,22.394392 0 1 1 27.769806,0z"/>
   <path id="svg_68" fill="url(#linearGradient3331)" fill-rule="nonzero" stroke="#000000" stroke-width="2.868705" stroke-linecap="round" stroke-linejoin="round" stroke-miterlimit="4" d="m259.459839,342.325256a13.884903,22.394392 0 1 1 -27.769806,0a13.884903,22.394392 0 1 1 27.769806,0z"/>
   <path id="svg_69" fill="url(#linearGradient3329)" fill-rule="nonzero" stroke="#000000" stroke-width="2.868705" stroke-linecap="round" stroke-linejoin="round" stroke-miterlimit="4" d="m225.84375,342.325256a13.884903,22.394392 0 1 1 -27.769791,0a13.884903,22.394392 0 1 1 27.769791,0z"/>
   <path id="svg_70" fill="url(#linearGradient3327)" fill-rule="nonzero" stroke="#000000" stroke-width="2.868705" stroke-linecap="round" stroke-linejoin="round" stroke-miterlimit="4" d="m242.408203,342.325256a13.884903,22.394392 0 1 1 -27.769821,0a13.884903,22.394392 0 1 1 27.769821,0z"/>
   <path id="svg_71" fill="#000000" fill-opacity="0.313725" fill-rule="nonzero" stroke-width="6.428549" stroke-linecap="round" stroke-miterlimit="4" d="m136.931671,319.927612c-5.657639,0 -10.50412,5.47641 -12.666931,13.313293c18.485031,4.935577 38.794083,7.814514 60.137466,8.206848c-0.290726,-11.948975 -6.375244,-21.520142 -13.854462,-21.520142c-3.216324,0 -6.171036,1.777527 -8.525818,4.74173c-2.354782,-2.964203 -5.309479,-4.74173 -8.525818,-4.74173c-3.104156,0 -5.969101,1.658203 -8.282227,4.437775c-2.313126,-2.779572 -5.17807,-4.437775 -8.282211,-4.437775zm75.027176,0c-7.460037,0 -13.53479,9.522797 -13.854446,21.428955c21.319977,-0.685089 41.523987,-3.874634 59.863403,-9.088318c-2.287048,-7.31015 -6.973724,-12.340637 -12.392883,-12.340637c-3.216339,0 -6.171051,1.777527 -8.525818,4.74173c-2.354797,-2.964203 -5.309479,-4.74173 -8.525818,-4.74173c-3.104156,0 -5.969116,1.658203 -8.282227,4.437775c-2.313141,-2.779572 -5.17807,-4.437775 -8.282211,-4.437775z"/>
   <path id="svg_72" fill="#784421" fill-rule="nonzero" stroke="#000000" stroke-width="5" stroke-linecap="round" stroke-miterlimit="4" d="m351.667358,168.051086a161.322281,161.03801 0 1 1 -322.644539,0a161.322281,161.03801 0 1 1 322.644539,0z"/>
   <path id="svg_73" fill="#000000" fill-opacity="0.313725" fill-rule="evenodd" stroke-width="5" stroke-miterlimit="4" d="m181.623093,131.113922c-20.642303,0 -43.079575,22.45459 -42.182068,36.636475c0.897491,14.181839 36.797165,73.27301 44.874557,73.27301c8.077423,0 39.489563,-57.909241 38.592072,-74.454788c-0.897507,-16.545578 -27.822235,-36.636581 -41.284561,-35.454697z"/>
   <path id="svg_74" fill="#ffffff" fill-rule="nonzero" stroke-width="5" stroke-linejoin="round" stroke-miterlimit="4" d="m154.552582,89.60025a4.141111,4.133815 0 1 1 -8.282211,0a4.141111,4.133815 0 1 1 8.282211,0z"/>
   <path id="svg_75" d="m18.747116,153.795959l9.784851,-4.205841l10.71817,-1.945328l7.795029,0l6.820656,0l8.769417,4.863312" fill-opacity="0.313725" stroke-width="5" fill="#000000"/>
   <path id="svg_76" d="m34.337189,158.659286l0.041054,-11.014496l2.923134,-11.671936l2.923141,-11.671951l3.897514,-12.644608l5.846275,-13.617264l7.795036,-16.535263l10.71817,-10.69928l9.74379,-12.644615l11.692558,-9.726624l12.666931,-9.72662l10.71817,-6.808636l11.692551,-5.835972l15.590073,-6.80864l14.615692,-3.890648l10.71817,-1.945324l13.641312,-1.945328l13.641296,0l11.692551,0.972664l11.692535,1.945324l12.666946,1.945324l8.769409,3.890648l11.692535,3.890652l9.743805,3.890652l9.743774,5.835972l10.71817,3.890652l9.743805,6.808632l11.692535,9.726624l3.897522,6.80864l9.743805,10.69928l6.820648,7.781303l4.871887,8.75396l4.871918,11.671944l4.871887,8.75396l3.897522,9.726624l1.948761,11.671936l3.897491,11.671951l0.974396,10.69928l0.974365,10.699295l-0.974365,9.726624l-8.769409,1.945328l-7.795044,1.945313l-2.923126,-1.945313l0.974365,-2.917999l-19.487579,-0.972656l-113.027969,-8.753967l-107.181709,4.863312l-5.846291,-7.781296l-5.846275,-6.80864l-8.769409,-2.917984l-11.692551,-0.972656l-12.666931,0.972656l-9.784843,9.069168z" stroke-width="5" fill="#ffffff"/>
   <path id="svg_77" fill="#ffffff" fill-rule="nonzero" stroke="#000000" stroke-width="5" stroke-linecap="round" stroke-miterlimit="4" d="m147.493881,57.234951c-28.148453,0 -51.010811,23.475491 -51.010811,52.400547c0,28.925064 22.862358,52.400558 51.010811,52.400558c16.542038,0 31.22139,-8.116302 40.540131,-20.672699c9.318069,12.565475 24.029419,20.672699 40.578476,20.672699c28.148438,0 51.010773,-23.475494 51.010803,-52.400558c0,-28.925056 -22.862366,-52.400547 -51.010803,-52.400547c-16.547134,0 -31.260193,8.109692 -40.578476,20.672741c-9.318893,-12.553711 -24.000198,-20.672741 -40.540131,-20.672741z"/>
   <path id="svg_78" fill="#000000" fill-rule="nonzero" stroke="#000000" stroke-width="3.169292" stroke-linecap="round" stroke-miterlimit="4" d="m156.634949,97.381546a15.967258,15.939123 0 1 1 -31.934525,0a15.967258,15.939123 0 1 1 31.934525,0z"/>
   <path id="svg_79" fill="#000000" fill-rule="nonzero" stroke="#000000" stroke-width="3.169292" stroke-linecap="round" stroke-miterlimit="4" d="m159.55809,95.436218a15.967258,15.939123 0 1 1 -31.934525,0a15.967258,15.939123 0 1 1 31.934525,0z"/>
   <path id="svg_80" fill="url(#linearGradient3211)" fill-rule="evenodd" stroke="#000000" stroke-width="5" stroke-miterlimit="4" d="m181.434723,137.51268c-15.071167,0 -31.452881,19.777649 -30.797638,32.268661c0.655273,12.49118 26.866058,64.537445 32.763412,64.537445c5.89743,0 28.831802,-51.005341 28.176483,-65.578262c-0.655212,-14.573044 -20.313248,-32.268768 -30.142258,-31.227844z"/>
   <path id="svg_81" fill="#000000" fill-rule="nonzero" stroke="#000000" stroke-width="3.169292" stroke-linecap="round" stroke-miterlimit="4" d="m237.508392,100.518234a15.967258,15.939123 0 1 1 -31.934494,0a15.967258,15.939123 0 1 1 31.934494,0z"/>
   <path id="svg_82" fill="#ffffff" fill-rule="nonzero" stroke-width="5" stroke-linejoin="round" stroke-miterlimit="4" d="m152.603836,89.60025a4.141111,4.133815 0 1 1 -8.282227,0a4.141111,4.133815 0 1 1 8.282227,0z"/>
   <path id="svg_83" fill="#ffffff" fill-rule="nonzero" stroke-width="5" stroke-linejoin="round" stroke-miterlimit="4" d="m220.810364,89.60025a4.141111,4.133815 0 1 1 -8.282227,0a4.141111,4.133815 0 1 1 8.282227,0z"/>
   <path id="svg_86" fill="#000000" fill-opacity="0.313725" fill-rule="evenodd" stroke-width="5" stroke-miterlimit="4" d="m329.601044,96.642822c1.930237,9.952759 2.953339,20.217255 2.953339,30.729797c0,3.628036 -0.128632,7.222015 -0.365387,10.790695c-3.577911,-0.177994 -7.38385,0.018494 -11.448944,0.607925c-34.312775,7.293991 -19.656158,50.251633 -28.592224,95.199341c-29.564606,33.390533 -72.794891,54.438904 -120.91362,54.438904c-29.595779,0 -57.324661,-7.982635 -81.178253,-21.884888c-23.072517,-53.927307 7.868896,-112.502975 -32.793991,-122.616714c-44.929123,-8.097427 -62.331497,33.515015 -33.28109,95.868515c16.039146,34.426392 42.602684,51.337097 62.147057,57.903534c27.636429,22.176697 62.74234,35.441864 100.939957,35.441864c44.771744,0 85.313705,-18.227661 114.549973,-47.660431c17.006775,-8.479675 35.917542,-23.922607 49.054138,-49.758514c24.56604,-48.313065 19.862701,-84.697464 -5.328888,-94.77327c-3.088806,-15.694885 -8.44397,-30.582535 -15.742065,-44.286758z"/>
   <path id="svg_84" fill="#784421" fill-rule="evenodd" stroke="#000000" stroke-width="5" stroke-miterlimit="4" d="m314.026062,144.396362c-46.87854,16.827103 13.800537,91.569046 -36.850189,156.785156c-9.362213,12.054474 56.385315,2.0336 79.628998,-64.764725c22.603943,-64.960007 1.103302,-104.599228 -42.778809,-92.020432z"/>
   <path id="svg_89" fill="#000000" fill-opacity="0.313725" fill-rule="evenodd" stroke-width="5" stroke-miterlimit="4" d="m326.221863,145.080627c-0.401978,-0.00058 -0.810303,0.019989 -1.217957,0.03038c15.796692,12.707413 22.482178,42.11348 14.402588,83.010666c-10.740662,54.366669 -52.203918,77.820801 -65.983765,79.059235c4.474487,6.347992 59.408813,-7.903625 80.234009,-67.752029c19.778442,-56.840012 5.769043,-94.299744 -27.434875,-94.348251z"/>
   <path id="svg_85" fill="#784421" fill-rule="evenodd" stroke="#000000" stroke-width="5" stroke-miterlimit="4" d="m63.142456,148.396378c46.878601,16.827103 -13.800568,91.569046 36.85022,156.785141c9.362183,12.054443 -56.385376,2.0336 -79.628998,-64.76474c-22.603973,-64.959991 -1.103363,-104.599213 42.778778,-92.020401z"/>
   <path id="svg_90" fill="#000000" fill-opacity="0.313725" fill-rule="evenodd" stroke-width="5" stroke-miterlimit="4" d="m17.786652,177.721619c-3.363342,16.054581 -1.265259,37.615448 7.581894,63.04068c23.243637,66.79837 88.987259,76.827667 79.625046,64.773193c-4.003632,-5.154907 -7.327698,-10.38269 -10.048279,-15.623352c-18.465958,-4.417267 -52.663055,-23.709839 -68.115204,-68.116791c-5.728912,-16.463898 -8.62706,-31.30069 -9.043457,-44.07373zm69.454956,6.170334c-0.860229,8.302719 -1.808655,17.130402 -2.222809,26.383469c0.967865,-9.522995 2.026154,-18.423325 2.222809,-26.383469z"/>
   <path id="svg_87" fill="#ffffff" fill-rule="evenodd" stroke="#000000" stroke-width="5" stroke-linecap="round" stroke-linejoin="round" stroke-miterlimit="4" d="m70.634277,134.482101c-13.045654,-4.483017 -26.523621,7.376526 -29.100021,13.792282c13.166092,-3.357895 19.214401,-4.304794 22.62352,-1.342957c-1.46814,3.279221 -16.96225,6.557602 -21.765045,28.081879c12.110352,-8.381073 21.732101,-18.06778 25.599289,-14.087219c-2.807755,4.896255 -6.040665,14.101105 -3.862015,23.227951c6.958511,-9.166794 14.068756,-18.848709 20.599854,-19.110703"/>
   <path id="svg_88" fill="#ffffff" fill-rule="evenodd" stroke="#000000" stroke-width="5" stroke-linecap="round" stroke-linejoin="round" stroke-miterlimit="4" d="m303.534241,136.482086c13.045654,-4.483002 26.523621,7.376541 29.100037,13.792282c-13.166138,-3.35791 -19.214417,-4.304779 -22.623535,-1.342957c1.46817,3.279251 16.962219,6.557602 21.765076,28.081879c-12.110352,-8.381073 -21.732117,-18.06778 -25.599304,-14.087219c2.807739,4.896271 6.04068,14.10112 3.86203,23.227951c-6.958527,-9.166794 -14.068817,-18.848709 -20.599915,-19.110687"/>
  </g>
 </g>
</svg>